<?xml version="1.0" encoding="UTF-8"?><svg id="Layer_1" xmlns="http://www.w3.org/2000/svg" viewBox="0 0 600 600"><defs><style>.cls-1{fill:#b82820;}.cls-2{fill:#2d4a8e;}</style></defs><path class="cls-1" d="m177.489,263.081l1.24-58.9,3.596.248-1.364,58.652c-.083,4.383.806,7.854,2.666,10.416,1.86,2.563,4.483,3.844,7.874,3.844.248,0,.372.248.372.744s-.124.744-.372.744c-1.819,0-3.679-.041-5.58-.124-1.902-.082-4.051-.124-6.448-.124-2.647,0-5.043.042-7.192.124-2.15.083-4.134.124-5.952.124-.248,0-.372-.248-.372-.744s.124-.744.372-.744c3.389,0,6.076-1.281,8.06-3.844,1.984-2.562,3.017-6.033,3.1-10.416Zm88.784,14.26c.165,0,.248.248.248.744s-.083.744-.248.744c-2.15,0-4.588-.041-7.316-.124-2.728-.082-5.58-.124-8.556-.124-3.059,0-5.911.042-8.556.124-2.646.083-5.043.124-7.192.124-.248,0-.372-.248-.372-.744s.124-.744.372-.744c3.885,0,6.386-.537,7.502-1.612,1.116-1.073,1.55-3.389,1.302-6.944l-2.852-55.056,6.324-9.92-31.62,74.152c-.083.332-.394.496-.93.496s-.889-.165-1.054-.496l-34.844-66.34c-3.143-5.869-6.903-8.804-11.284-8.804-.248,0-.372-.248-.372-.744s.124-.744.372-.744c1.736,0,3.554.042,5.456.124,1.901.083,3.513.124,4.836.124,2.149,0,4.03-.041,5.642-.124,1.612-.082,2.872-.124,3.782-.124,1.157,0,2.046.415,2.666,1.24.62.827,1.631,2.563,3.038,5.208l27.776,52.08-6.2,11.16,29.016-66.588c.496-1.157,1.011-1.963,1.55-2.418.537-.454,1.26-.682,2.17-.682.825,0,1.693.042,2.604.124.909.083,1.984.124,3.224.124,2.645,0,4.898-.041,6.758-.124,1.86-.082,3.699-.124,5.518-.124.248,0,.372.248.372.744s-.124.744-.372.744c-3.803,0-6.593.787-8.37,2.356-1.779,1.571-2.585,4.01-2.418,7.316l2.976,56.296c.165,2.398.475,4.216.93,5.456.454,1.24,1.302,2.067,2.542,2.48,1.24.415,3.1.62,5.58.62Z"/><path class="cls-1" d="m301.613,280.316c-5.375,0-9.942-1.116-13.703-3.348-3.763-2.232-6.615-5.187-8.556-8.866-1.943-3.677-2.914-7.626-2.914-11.842,0-4.877,1.198-9.3,3.596-13.268,2.396-3.968,5.704-7.149,9.92-9.548,4.216-2.397,9.052-3.596,14.508-3.596,4.877,0,8.783,1.116,11.718,3.348,2.934,2.232,4.402,5.871,4.402,10.912,0,1.076-.083,1.984-.248,2.728-.167.744-.539,1.116-1.116,1.116h-11.903c.164-4.712-.291-8.494-1.364-11.346-1.075-2.852-3.143-4.278-6.201-4.278-3.307,0-5.933,1.695-7.874,5.084-1.943,3.391-2.914,7.896-2.914,13.516,0,4.795.744,8.928,2.232,12.4,1.488,3.472,3.677,6.159,6.572,8.06,2.893,1.902,6.448,2.852,10.664,2.852,2.48,0,4.567-.31,6.263-.93,1.693-.62,3.574-1.467,5.642-2.542.165-.165.392-.082.682.248.289.332.351.62.187.868-3.06,3.059-6.181,5.229-9.362,6.51-3.184,1.281-6.593,1.922-10.229,1.922Zm-16.989-32.24l-.124-2.356,27.157-.496v2.728l-27.033.124Z"/><path class="cls-1" d="m332.365,278.829c-.248,0-.372-.248-.372-.744s.124-.744.372-.744c2.562,0,4.297-.599,5.208-1.798.908-1.197,1.364-3.451,1.364-6.758v-23.312c0-2.562-.291-4.443-.868-5.642-.58-1.197-1.571-1.798-2.977-1.798-.744,0-1.611.145-2.604.434-.992.291-2.108.725-3.349,1.302-.331.167-.579,0-.743-.496-.167-.496-.167-.785,0-.868l17.235-8.432c.496-.165.785-.248.868-.248.909,0,1.817.992,2.729,2.976.908,1.984,1.363,4.836,1.363,8.556v27.528c0,2.15.33,3.865.992,5.146.661,1.283,1.798,2.17,3.41,2.666s3.822.744,6.634.744c.329,0,.496.248.496.744s-.167.744-.496.744c-2.231,0-4.773-.041-7.626-.124-2.852-.082-5.933-.124-9.238-.124-2.314,0-4.547.042-6.695.124-2.151.083-4.052.124-5.704.124Zm15.128-33.604l-.992-1.612c3.224-3.72,5.952-6.572,8.184-8.556,2.232-1.984,4.133-3.367,5.704-4.154,1.569-.785,2.977-1.178,4.217-1.178,1.735,0,3.533.641,5.394,1.922,1.86,1.283,2.79,2.957,2.79,5.022,0,1.736-.518,3.162-1.55,4.278-1.035,1.116-2.461,1.674-4.278,1.674-1.736,0-3.038-.453-3.906-1.364-.867-.909-1.654-1.798-2.355-2.666-.703-.868-1.717-1.302-3.038-1.302-.579,0-1.221.186-1.922.558-.703.372-1.695,1.116-2.977,2.232-1.282,1.116-3.038,2.833-5.27,5.146Z"/><path class="cls-1" d="m432.433,230.965c.165,0,.248.248.248.744s-.083.744-.248.744c-2.812,0-5.167,1.199-7.067,3.596-1.903,2.398-3.597,5.623-5.084,9.672l-13.765,36.58c-2.976,7.936-5.85,14.198-8.618,18.785-2.771,4.589-5.561,7.832-8.37,9.734-2.811,1.9-5.787,2.853-8.928,2.853-2.398,0-4.277-.518-5.642-1.551-1.364-1.034-2.046-2.542-2.046-4.525s.601-3.453,1.798-4.402c1.199-.951,2.584-1.426,4.154-1.426,1.404,0,2.521.268,3.348.806.825.537,1.652,1.073,2.479,1.612.826.536,1.901.806,3.225.806,1.983,0,3.801-.849,5.456-2.542,1.652-1.695,3.429-4.587,5.332-8.68,1.9-4.092,4.133-9.693,6.695-16.802l-.372,6.82-21.079-42.532c-1.819-3.637-3.246-6.014-4.278-7.13-1.035-1.116-2.294-1.674-3.782-1.674-.248,0-.372-.248-.372-.744s.124-.744.372-.744c1.654,0,3.41.042,5.271.124,1.859.083,3.615.124,5.27.124,2.976,0,5.58-.041,7.812-.124,2.231-.081,4.256-.124,6.075-.124.248,0,.372.248.372.744s-.124.744-.372.744c-2.895,0-4.754.331-5.58.992-.827.663-.786,1.943.124,3.844l15.748,32.24-4.464,7.316,10.788-31.248c1.405-4.049,1.508-7.254.311-9.61-1.199-2.356-3.494-3.534-6.883-3.534-.166,0-.248-.248-.248-.744s.082-.744.248-.744c1.984,0,3.864.042,5.643.124,1.776.083,4.07.124,6.882.124,1.984,0,3.615-.041,4.898-.124,1.28-.081,2.83-.124,4.649-.124Z"/><path class="cls-1" d="m153.867,376.784v-57.412c0-2.396-.208-4.194-.62-5.394-.415-1.197-1.261-2.024-2.542-2.48-1.283-.453-3.162-.682-5.642-.682-.248,0-.372-.248-.372-.744s.124-.744.372-.744c2.149,0,4.545.062,7.192.187,2.645.124,5.456.186,8.432.186,3.141,0,6.034-.062,8.68-.186,2.645-.124,5-.187,7.068-.187.248,0,.372.248.372.744s-.124.744-.372.744c-2.48,0-4.34.248-5.58.744-1.24.496-2.088,1.364-2.542,2.604-.455,1.24-.682,3.06-.682,5.456v57.164c0,2.398.205,4.216.62,5.456.413,1.24,1.24,2.067,2.48,2.479,1.24.415,3.141.62,5.704.62.33,0,.496.248.496.744s-.167.744-.496.744c-2.15,0-4.526-.041-7.13-.124-2.604-.081-5.477-.124-8.618-.124-2.976,0-5.828.043-8.556.124-2.728.083-5.167.124-7.316.124-.167,0-.248-.248-.248-.744s.081-.744.248-.744c2.561,0,4.483-.205,5.766-.62,1.281-.412,2.149-1.239,2.604-2.479.454-1.24.682-3.058.682-5.456Zm5.084-21.948l31.992-32.735c3.057-3.058,4.194-5.704,3.41-7.937-.787-2.231-3.245-3.348-7.378-3.348-.248,0-.372-.248-.372-.744s.124-.744.372-.744c2.232,0,4.505.062,6.82.187,2.313.124,5.373.186,9.176.186,3.968,0,7.109-.062,9.424-.186,2.313-.124,4.545-.187,6.696-.187.248,0,.372.248.372.744s-.124.744-.372.744c-3.803,0-7.979,1.097-12.524,3.286-4.547,2.191-8.68,5.105-12.4,8.742l-31.868,32.363-3.348-.372Zm27.652,14.012l-16.988-22.939,9.92-9.548,18.972,25.544c3.224,4.547,5.952,8.288,8.184,11.222,2.232,2.936,4.111,5.251,5.642,6.944,1.529,1.695,2.872,2.914,4.03,3.658,1.157.743,2.294,1.199,3.41,1.363,1.116.167,2.334.248,3.658.248.248,0,.372.248.372.744s-.124.744-.372.744h-13.888c-1.24,0-2.315.041-3.224.124-.911.081-1.695.124-2.356.124-1.076,0-2.027-.207-2.852-.62-.828-.413-1.798-1.24-2.914-2.479-1.116-1.24-2.584-3.058-4.402-5.456-1.819-2.397-4.216-5.621-7.192-9.673Z"/><path class="cls-1" d="m231.243,386.828c-.167,0-.248-.248-.248-.744s.082-.744.248-.744c2.562,0,4.319-.599,5.27-1.798.949-1.197,1.426-3.45,1.426-6.758v-62.992c0-2.809-.248-4.855-.744-6.138-.496-1.28-1.447-1.922-2.852-1.922-1.159,0-2.728.455-4.712,1.364-.248.083-.496-.124-.744-.62s-.289-.785-.124-.868l18.104-8.556c.165-.082.289-.124.372-.124h.248c.413,0,.847.186,1.302.558.454.372.682.725.682,1.054v78.244c0,3.308.475,5.561,1.426,6.758.95,1.199,2.707,1.798,5.27,1.798.33,0,.496.248.496.744s-.167.744-.496.744c-1.654,0-3.534-.041-5.642-.124-2.108-.081-4.361-.124-6.758-.124s-4.671.043-6.82.124c-2.151.083-4.051.124-5.704.124Zm33.356,0c-.167,0-.248-.248-.248-.744s.082-.744.248-.744c2.562,0,4.319-.599,5.27-1.798.949-1.197,1.426-3.45,1.426-6.758v-17.856c0-8.761-3.391-13.144-10.168-13.144-2.48,0-5.022.62-7.626,1.86-2.604,1.239-4.65,2.935-6.138,5.084l-.744-1.488c2.893-4.133,6.157-7.46,9.796-9.981,3.637-2.521,7.605-3.782,11.904-3.782,4.628,0,8.203,1.447,10.726,4.34,2.521,2.895,3.782,6.614,3.782,11.16v23.808c0,3.308.475,5.561,1.426,6.758.95,1.199,2.707,1.798,5.27,1.798.33,0,.496.248.496.744s-.167.744-.496.744c-1.654,0-3.534-.041-5.642-.124-2.108-.081-4.361-.124-6.758-.124s-4.671.043-6.82.124c-2.151.083-4.051.124-5.704.124Z"/><path class="cls-1" d="m327.218,388.316c-5.375,0-9.941-1.116-13.702-3.349-3.763-2.231-6.614-5.187-8.556-8.865-1.943-3.678-2.914-7.626-2.914-11.843,0-4.876,1.197-9.3,3.596-13.268,2.396-3.968,5.704-7.149,9.92-9.548,4.217-2.396,9.053-3.596,14.509-3.596,4.876,0,8.782,1.116,11.718,3.348,2.934,2.232,4.401,5.87,4.401,10.912,0,1.075-.083,1.983-.248,2.728-.166.744-.538,1.116-1.115,1.116h-11.904c.165-4.712-.291-8.494-1.364-11.346-1.075-2.853-3.143-4.278-6.2-4.278-3.307,0-5.933,1.695-7.874,5.084-1.942,3.391-2.913,7.896-2.913,13.516,0,4.796.743,8.929,2.231,12.4s3.678,6.159,6.572,8.06c2.893,1.903,6.448,2.853,10.664,2.853,2.479,0,4.566-.311,6.262-.93,1.693-.62,3.575-1.467,5.642-2.542.165-.165.392-.082.683.248.288.331.351.619.186.867-3.059,3.06-6.181,5.229-9.361,6.511-3.184,1.28-6.594,1.922-10.23,1.922Zm-16.988-32.24l-.124-2.356,27.156-.495v2.728l-27.032.124Z"/><path class="cls-1" d="m361.069,386.828c-.248,0-.372-.248-.372-.744s.124-.744.372-.744c2.562,0,4.298-.599,5.208-1.798.909-1.197,1.364-3.45,1.364-6.758v-23.312c0-2.561-.291-4.442-.868-5.642-.579-1.197-1.571-1.798-2.976-1.798-.744,0-1.612.146-2.604.434-.992.291-2.107.725-3.348,1.303-.331.166-.579,0-.744-.496-.167-.496-.167-.785,0-.868l17.236-8.432c.496-.165.784-.248.868-.248.908,0,1.817.992,2.728,2.976.909,1.984,1.364,4.836,1.364,8.556v27.528c0,3.308.475,5.561,1.426,6.758.949,1.199,2.707,1.798,5.27,1.798.248,0,.372.248.372.744s-.124.744-.372.744c-1.654,0-3.555-.041-5.703-.124-2.151-.081-4.424-.124-6.82-.124-2.315,0-4.548.043-6.696.124-2.15.083-4.051.124-5.704.124Zm31.868,0c-.248,0-.372-.248-.372-.744s.124-.744.372-.744c2.562,0,4.318-.599,5.271-1.798.949-1.197,1.426-3.45,1.426-6.758v-17.856c0-8.761-3.101-13.144-9.3-13.144-2.563,0-5.044.62-7.44,1.86-2.398,1.239-4.34,2.935-5.828,5.084l-.62-1.488c2.81-4.133,5.972-7.46,9.486-9.981,3.513-2.521,7.335-3.782,11.47-3.782,4.381,0,7.77,1.199,10.168,3.596,2.397,2.398,3.597,5.911,3.597,10.54v25.172c0,3.308.475,5.561,1.426,6.758.949,1.199,2.706,1.798,5.27,1.798.33,0,.496.248.496.744s-.166.744-.496.744c-1.654,0-3.555-.041-5.704-.124-2.15-.081-4.423-.124-6.819-.124-2.315,0-4.548.043-6.696.124-2.15.083-4.052.124-5.704.124Zm32.488,0c-.248,0-.372-.248-.372-.744s.124-.744.372-.744c2.562,0,4.318-.599,5.27-1.798.949-1.197,1.427-3.45,1.427-6.758v-17.856c0-8.761-3.101-13.144-9.301-13.144-2.562,0-5.043.62-7.439,1.86-2.398,1.239-4.34,2.935-5.828,5.084l-.62-1.488c2.81-4.133,5.972-7.46,9.486-9.981,3.513-2.521,7.335-3.782,11.47-3.782,4.381,0,7.77,1.261,10.168,3.782,2.396,2.521,3.596,6.428,3.596,11.718v23.808c0,3.308.475,5.561,1.427,6.758.949,1.199,2.706,1.798,5.27,1.798.329,0,.496.248.496.744s-.167.744-.496.744c-1.654,0-3.556-.041-5.704-.124-2.15-.081-4.423-.124-6.82-.124-2.314,0-4.547.043-6.695.124-2.15.083-4.052.124-5.704.124Z"/><path class="cls-2" d="m292.467,341.497c-3.187,0-6.035-.647-8.545-1.944-2.511-1.296-4.604-3.063-6.278-5.305-1.674-2.24-2.822-4.766-3.442-7.574-.622-2.807-.635-5.696-.041-8.667.648-2.969,1.903-5.589,3.767-7.856,1.863-2.269,4.022-4.05,6.48-5.347,2.457-1.296,4.873-1.943,7.25-1.943,1.349,0,2.619.216,3.807.647,1.187.434,2.24,1.188,3.159,2.269l-3.807,3.482c-.918-1.728-2.065-2.875-3.442-3.442-1.377-.566-2.632-.851-3.767-.851-1.458,0-2.849.474-4.171,1.418-1.324.945-2.458,2.201-3.402,3.767-.945,1.566-1.661,3.32-2.146,5.265-.648,3.349-.595,6.439.162,9.274.755,2.835,1.984,5.306,3.686,7.412,1.701,2.105,3.712,3.739,6.034,4.9,2.321,1.161,4.751,1.741,7.29,1.741,3.51,0,6.615-.863,9.315-2.592,2.7-1.728,4.873-4.306,6.521-7.735,1.646-3.429,2.578-7.736,2.794-12.92l1.296.486c-.433,5.725-1.66,10.477-3.686,14.256-2.024,3.78-4.657,6.602-7.897,8.465-3.24,1.862-6.885,2.794-10.935,2.794Zm-15.471-16.848l-.729-.729c1.944-1.62,4.103-3.348,6.48-5.184,2.375-1.835,4.779-3.727,7.209-5.67,2.43-1.944,4.658-3.915,6.683-5.913,2.025-1.997,3.658-3.981,4.9-5.954,1.242-1.97,1.863-3.9,1.863-5.791,0-1.025-.136-1.822-.405-2.389-.271-.567-.595-1.025-.972-1.377-.378-.351-.702-.688-.972-1.013-.271-.324-.406-.782-.406-1.377,0-.701.203-1.255.608-1.661.405-.405.932-.607,1.579-.607,1.08,0,1.998.5,2.755,1.499.756,1,1.134,2.39,1.134,4.171,0,2.268-.688,4.564-2.065,6.885-1.377,2.322-3.188,4.617-5.428,6.884-2.241,2.269-4.685,4.483-7.33,6.643-2.646,2.16-5.279,4.212-7.898,6.155-2.62,1.944-4.955,3.754-7.006,5.428Zm22.599-3.078c-.541,0-1-.175-1.377-.526-.378-.351-.567-.985-.567-1.903,0-1.404.417-2.7,1.255-3.889.836-1.187,1.93-2.146,3.281-2.875,1.349-.729,2.754-1.094,4.212-1.094,1.403,0,2.861.312,4.374.932,1.512.621,3.023,1.336,4.536,2.146,1.511.81,2.983,1.526,4.415,2.146,1.43.621,2.739.932,3.928.932.756,0,1.337-.148,1.742-.445.404-.297.607-.635.607-1.013,0-.539-.122-1.013-.365-1.418-.242-.405-.499-.822-.77-1.255-.271-.432-.404-.918-.404-1.458,0-.594.162-1.025.485-1.297.324-.27.782-.404,1.377-.404.54,0,.985.149,1.337.445.351.298.526.932.526,1.903,0,1.296-.338,2.539-1.013,3.727-.676,1.188-1.579,2.16-2.713,2.916-1.134.757-2.403,1.134-3.808,1.134-1.35,0-2.781-.324-4.293-.973-1.512-.647-3.065-1.403-4.657-2.268-1.594-.863-3.146-1.62-4.657-2.268-1.513-.648-2.944-.973-4.293-.973-.811,0-1.432.176-1.864.526-.433.353-.648.743-.648,1.175,0,.54.094,1.04.284,1.499.188.459.377.918.567,1.377.188.459.283.931.283,1.417,0,.379-.121.77-.364,1.175-.243.404-.716.607-1.417.607Z"/></svg>